<?xml version="1.0" encoding="UTF-8"?> <svg xmlns="http://www.w3.org/2000/svg" xmlns:xlink="http://www.w3.org/1999/xlink" id="Layer_2" viewBox="0 0 1056.37 152.01"> <defs> <style>.cls-1{fill:url(#linear-gradient);}.cls-2,.cls-3{fill:#505DCC;}.cls-3{fill-rule:evenodd;}</style> <linearGradient id="linear-gradient" x1="540.56" y1="107.89" x2="1056.37" y2="107.89" gradientUnits="userSpaceOnUse"> <stop offset="0" stop-color="#505DCC"></stop> <stop offset=".07" stop-color="#5130cc"></stop> <stop offset=".25" stop-color="#3e2696"></stop> <stop offset=".42" stop-color="#2e1e6a"></stop> <stop offset=".59" stop-color="#211848"></stop> <stop offset=".74" stop-color="#18132f"></stop> <stop offset=".88" stop-color="#121021"></stop> <stop offset="1" stop-color="#11101c"></stop> </linearGradient> </defs> <g id="Layer_1-2"> <path class="cls-3" d="m233.16,118.82c11.95,0,21.63-3.93,29.04-11.78,7.41-7.85,11.12-18.31,11.12-31.36s-3.71-23.45-11.12-31.2c-7.41-7.74-17.09-11.62-29.04-11.62s-22.18,4.04-30.04,12.11c-7.86,8.08-11.78,18.42-11.78,31.03s3.87,22.9,11.62,30.87c7.74,7.97,17.81,11.95,30.2,11.95h0ZM271.66,4.65h36.18v142.72h-36.18v-12.94c-11.28,11.73-26.11,17.59-44.48,17.59-21.02,0-38.5-7.19-52.44-21.57-13.94-14.38-20.91-32.53-20.91-54.43s6.97-40.05,20.91-54.43C188.69,7.19,206.17,0,227.19,0c18.37,0,33.19,5.86,44.48,17.59V4.65Z"></path> <polygon class="cls-3" points="138.4 4.65 138.4 36.51 87.29 36.51 87.29 147.36 50.78 147.36 50.78 36.51 0 36.51 0 4.65 138.4 4.65"></polygon> <path class="cls-2" d="m418.23,0h-13.67C364.99,0,332.9,32.09,332.9,71.67v8.68c0,39.58,32.09,71.66,71.66,71.66h13.67c39.58,0,71.66-32.09,71.66-71.66v-8.68C489.89,32.09,457.81,0,418.23,0Zm34.49,79.98c0,21.63-17.54,39.18-39.18,39.18h-4.29c-21.64,0-39.18-17.54-39.18-39.18v-7.94c0-21.63,17.53-39.18,39.18-39.18h4.29c21.63,0,39.18,17.54,39.18,39.18v7.94Z"></path> <rect class="cls-2" x="540.56" y="28.17" width="164.22" height="31.89"></rect> <rect class="cls-1" x="540.56" y="91.95" width="515.81" height="31.89"></rect> </g> </svg> 